<svg viewBox="0 0 431 331" fill="none" xmlns="http://www.w3.org/2000/svg">
  <g clip-path="url(#clip0)" filter="url(#filter0_d)">
    <path d="M96.5406 20.098h27.6384c11.654-.0002 23.104 3.0646 33.2 8.887 10.096 5.8224 18.483 14.1976 24.32 24.2853l13.421 23.2369 9.914 17.1363-1.819 3.1701-32.682 57.0844c-5.012 9.238 2.178 22.605 1.427 21.254l-20.699-35.732L89.4486 32.3974c-.7216-1.2455-1.1024-2.6591-1.1039-4.0985-.0015-1.4394.3763-2.8538 1.0953-4.1008.719-1.247 1.7539-2.2825 3.0005-3.0023 1.2465-.7197 2.6607-1.0984 4.1001-1.0978z" fill="url(#paint0_linear)"/>
    <path opacity=".2" d="M198.661 82.6078l6.373 11.0247-1.819 3.1811-38.238 66.2684c-.077-.044 33.684-80.4742 33.684-80.4742z" fill="#006"/>
    <path d="M313.451 20h-27.638c-11.148.0162-22.112 2.8364-31.884 8.2011-9.772 5.3648-18.037 13.1016-24.035 22.4982-.257.3138-.487.6491-.686 1.0022l-.883 1.5252-13.41 23.2587-9.881 17.1363-48.87 84.7333c-.719 1.247-1.097 2.661-1.096 4.1 0 1.439.379 2.853 1.099 4.099s1.755 2.281 3.001 3.001c1.246.719 2.659 1.099 4.098 1.1h27.638c11.143-.022 22.1-2.845 31.866-8.209 9.766-5.365 18.026-13.099 24.021-22.491.254-.319.484-.658.686-1.013l.882-1.514 13.411-23.237 9.881-17.147 48.87-84.7338c.72-1.2447 1.1-2.6567 1.103-4.0946.002-1.4379-.374-2.8511-1.09-4.098-.716-1.2468-1.748-2.2836-2.991-3.0063-1.243-.7227-2.654-1.1059-4.092-1.1113z" fill="url(#paint1_linear)"/>
    <path d="M50.0232 266.52l-17.5394-39.795H30l18.7813 42.584h2.4838l18.7812-42.584h-2.4838L50.0232 266.52z" fill="#fff"/>
    <path d="M77.781 226.474c-.4922.003-.9632.2-1.3102.549-.347.349-.5418.822-.5418 1.314-.0044.245.0404.488.1318.715.0914.228.2275.434.4002.608s.3785.311.6052.404c.2268.092.4698.139.7148.136.494 0 .9679-.197 1.3172-.546.3494-.349.5457-.823.5457-1.317-.0111-.491-.211-.958-.5579-1.305-.347-.347-.8144-.547-1.305-.558z" fill="#7A5ADD"/>
    <path d="M78.9032 237.27h-2.2333v32.05h2.2333v-32.05zM102.271 236.518c-8.8025 0-15.7419 7.321-15.7419 16.679 0 9.173 7.19 16.853 15.7419 16.853 5.142 0 10.72-2.037 13.389-4.957l-1.547-1.667c-2.669 2.909-7.256 4.358-11.842 4.358-6.9396 0-12.9531-6.079-13.4542-13.519h28.7052c0-10.611-6.078-17.747-15.251-17.747zm0 2.234c7.56 0 12.648 5.327 13.073 13.323H88.8277c.4902-7.495 6.2531-13.323 13.4433-13.323zM154.083 266.335l-9.609-29.065h-1.917l-9.609 29.065-9.608-29.065h-2.288l10.469 32.039h2.789l9.173-27.888 9.172 27.888h2.789l10.546-32.039h-2.299l-9.608 29.065zM189.967 243.403c-6.318-1.361-8.366-2.179-8.366-4.837 0-2.102 1.928-3.715 5.338-3.715 4.432.148 8.696 1.735 12.147 4.521 1.525 1.09 3.987.262 5.447-1.808 1.46-2.07 1.372-4.63-.087-5.752-4.521-3.758-10.077-5.785-17.18-5.785-9.729 0-16.341 5.447-16.341 13.64 0 8.551 6.754 11.035 15.861 13.072 6.199 1.493 8.182 2.049 8.182 4.587 0 2.298-2.048 3.911-6.014 3.911-5.168-.097-10.133-2.027-14.009-5.447l-5.927 7.146c5.417 4.741 12.413 7.283 19.61 7.125 10.534 0 17.049-5.327 17.049-13.879-.022-8.007-6.155-10.676-15.71-12.779zM227.345 236.518c-9.674 0-17.79 7.626-17.79 16.733 0 9.108 8.116 16.799 17.79 16.799s17.79-7.68 17.79-16.799c0-9.118-8.149-16.733-17.79-16.733zm0 24.795c-1.593.03-3.159-.414-4.498-1.276-1.34-.862-2.392-2.104-3.024-3.566-.633-1.462-.815-3.079-.526-4.646.29-1.566 1.039-3.011 2.153-4.15 1.113-1.14 2.54-1.922 4.099-2.248 1.559-.326 3.18-.181 4.657.417 1.476.598 2.742 1.621 3.635 2.94.893 1.319 1.373 2.874 1.38 4.467-.005 2.105-.83 4.125-2.301 5.63-1.471 1.506-3.471 2.378-5.575 2.432zM271.531 255.92l-.055-.185c.019.743-.115 1.482-.393 2.172-.278.689-.694 1.314-1.223 1.837-.528.522-1.158.931-1.851 1.201-.692.27-1.433.395-2.176.368-3.268 0-5.447-2.473-5.447-6.013v-18.03h-10.044v20.383c0 7.255 4.902 12.397 11.787 12.397 1.802.072 3.596-.286 5.232-1.043 1.637-.758 3.07-1.894 4.181-3.315 0 .971.385 1.902 1.072 2.589.686.686 1.617 1.072 2.588 1.072h6.82V237.27h-10.48l-.011 18.65zM299.485 243.218v-2.299c0-.48-.095-.955-.279-1.399-.184-.443-.454-.846-.794-1.185-.34-.339-.744-.608-1.188-.79-.444-.183-.919-.276-1.4-.275h-6.808v32.039h10.469v-14.565l.065.12c0-5.883 3.966-9.609 10.469-9.609v-8.715c-2.21-.008-4.376.616-6.243 1.8-1.867 1.183-3.356 2.876-4.291 4.878zM330.849 261.313c-2.057-.107-3.995-1-5.413-2.494-1.418-1.494-2.209-3.475-2.209-5.535s.791-4.041 2.209-5.535c1.418-1.494 3.356-2.387 5.413-2.494 2.305.082 4.488 1.063 6.078 2.735l.414-.349-.316.316c1.264 1.264 3.715.893 5.447-.817.676-.581 1.157-1.355 1.379-2.218.222-.863.175-1.773-.137-2.608l.142-.109c-1.62-1.829-3.616-3.287-5.852-4.272-2.235-.985-4.658-1.475-7.101-1.437-9.674 0-17.855 7.626-17.855 16.734 0 9.107 8.116 16.798 17.724 16.798 2.508.05 4.996-.45 7.288-1.467 2.293-1.016 4.335-2.524 5.981-4.416l-6.939-5.708c-.797.873-1.761 1.578-2.835 2.072s-2.237.767-3.418.804zM364.065 261.564c-1.093.016-2.174-.229-3.154-.714-.979-.485-1.829-1.196-2.479-2.075-1.211-1.592-1.852-3.545-1.819-5.545.014-1.886.578-3.726 1.623-5.295.652-.938 1.524-1.701 2.541-2.222 1.017-.52 2.146-.782 3.288-.763 1.431-.029 2.829.437 3.958 1.318s1.92 2.123 2.24 3.519h-7.429c-1.09 0-1.972 1.438-1.972 3.192 0 1.754.893 3.192 1.972 3.192h17.169c0-12.212-5.959-19.609-16.124-19.609-9.663 0-16.733 6.939-16.733 16.679 0 9.739 7.31 16.853 17.235 16.853 4.771 0 10.284-2.038 13.138-4.957l-6.199-6.253c-2.045 1.689-4.603 2.634-7.255 2.68z" fill="#fff"/>
  </g>
  <defs>
    <filter id="filter0_d" x="0" y="0" width="430.002" height="330.05" filterUnits="userSpaceOnUse" color-interpolation-filters="sRGB">
      <feFlood flood-opacity="0" result="BackgroundImageFix"/>
      <feColorMatrix in="SourceAlpha" values="0 0 0 0 0 0 0 0 0 0 0 0 0 0 0 0 0 0 127 0"/>
      <feOffset dx="10" dy="20"/>
      <feGaussianBlur stdDeviation="20"/>
      <feColorMatrix values="0 0 0 0 0 0 0 0 0 0 0 0 0 0 0 0 0 0 0.25 0"/>
      <feBlend in2="BackgroundImageFix" result="effect1_dropShadow"/>
      <feBlend in="SourceGraphic" in2="effect1_dropShadow" result="shape"/>
    </filter>
    <linearGradient id="paint0_linear" x1="198.53" y1="151.861" x2="123.754" y2="22.3313" gradientUnits="userSpaceOnUse">
      <stop stop-color="#C74FFA"/>
      <stop offset=".11" stop-color="#BF55FA"/>
      <stop offset=".27" stop-color="#A965FB"/>
      <stop offset=".48" stop-color="#867FFB"/>
      <stop offset=".71" stop-color="#55A4FC"/>
      <stop offset=".97" stop-color="#16D2FE"/>
      <stop offset="1" stop-color="#0ED8FE"/>
    </linearGradient>
    <linearGradient id="paint1_linear" x1="217.181" y1="142.013" x2="277.12" y2="38.193" gradientUnits="userSpaceOnUse">
      <stop stop-color="#7BFFC3"/>
      <stop offset=".26" stop-color="#5FFBC1"/>
      <stop offset=".82" stop-color="#18F0BB"/>
      <stop offset="1" stop-color="#00EDB9"/>
    </linearGradient>
    <clipPath id="clip0">
      <path fill="#fff" transform="translate(30 20)" d="M0 0h350.002v250.05H0z"/>
    </clipPath>
  </defs>
</svg>
